# Alias OBJ Model File
# Exported from SketchUp, (c) 2000-2012 Trimble Navigation Limited
# File units = millimeters

mtllib statek6-tomas.mtl

g Mesh1 dolni_komora1 Model

usemtl FrontColor
v 5991.5 720 -3919.12
vt 239.764 100.517
vn 0 1 -0
v 6096.5 720 -3919.12
vt 243.898 100.517
v 6096.5 720 -4819.12
vt 243.898 135.95
v 5991.5 720 -4819.12
vt 239.764 135.95
f 1/1/1 2/2/1 3/3/1 4/4/1 

vt 239.764 80.7087
vn 0 0 1
v 5991.5 590 -3919.12
vt 239.764 75.5906
v 6201.5 590 -3919.12
vt 248.031 75.5906
v 6201.5 770 -3919.12
vt 248.031 82.6772
v 6096.5 770 -3919.12
vt 243.898 82.6772
vt 243.898 80.7087
f 1/5/2 5/6/2 6/7/2 7/8/2 8/9/2 2/10/2 

v 5991.5 590 -4819.12
vt -135.95 75.5906
vn -1 0 -0
vt -100.517 75.5906
vt -100.517 80.7087
vt -135.95 80.7087
f 9/11/3 5/12/3 1/13/3 4/14/3 

vt -239.764 100.517
vn 0 -1 -0
vt -239.764 135.95
v 6201.5 590 -4819.12
vt -248.031 135.95
vt -248.031 100.517
f 5/15/4 9/16/4 10/17/4 6/18/4 

v 6201.5 -920 -4819.12
vt -248.031 16.1417
vn 0 0 -1
v 5991.5 -920 -4819.12
vt -239.764 16.1417
vt -239.764 75.5906
vt -248.031 75.5906
f 11/19/5 12/20/5 9/21/5 10/22/5 

v 6201.5 -920 -3919.12
v 5991.5 -920 -3919.12
f 11/17/4 13/18/4 14/15/4 12/16/4 

vt -135.95 16.1417
v 6201.5 -920 -5069.12
vt -145.792 16.1417
v 6201.5 770 -5069.12
vt -145.792 82.6772
v 6201.5 770 -5976.05
vt -181.498 82.6772
v 6201.5 -1330 -5976.05
vt -181.498 0
v 6201.5 -1330 -1366
vt -2.27374e-13 0
v 6201.5 770 -1366
vt -2.27374e-13 82.6772
v 6201.5 770 -3669.12
vt -90.6742 82.6772
v 6201.5 -920 -3669.12
vt -90.6742 16.1417
vt -100.517 16.1417
f 11/23/3 15/24/3 16/25/3 17/26/3 18/27/3 19/28/3 20/29/3 21/30/3 22/31/3 13/32/3 

v 6201.5 770 -4819.12
vt -135.95 82.6772
f 16/25/3 15/24/3 11/23/3 10/11/3 23/33/3 

vt 100.517 75.5906
vn 1 0 -0
vt 135.95 75.5906
vt 135.95 82.6772
vt 100.517 82.6772
f 6/34/6 10/35/6 23/36/6 7/37/6 

vt -248.031 82.6772
vt -239.764 80.7087
vt -243.898 80.7087
v 6096.5 770 -4819.12
vt -243.898 82.6772
f 23/38/5 10/22/5 9/21/5 4/39/5 3/40/5 24/41/5 

v 5991.5 720 -1566
vt 7.87402 80.7087
v 5991.5 -1330 -1566
vt 7.87402 0
v 5991.5 -1330 -5719.12
vt 171.383 0
v 5991.5 720 -5719.12
vt 171.383 80.7087
vt 135.95 80.7087
vt 135.95 16.1417
vt 100.517 16.1417
vt 100.517 80.7087
f 25/42/6 26/43/6 27/44/6 28/45/6 4/46/6 9/35/6 12/47/6 14/48/6 5/34/6 1/49/6 

v 101.504 -1330 -1566
vt 239.764 0
v 4989.5 720 -1566
vt 200.315 80.7087
v 4989.5 600 -1566
vt 200.315 75.9843
v 4769.5 600 -1566
vt 191.654 75.9843
v 4769.5 720 -1566
vt 191.654 80.7087
v 3767.5 720 -1566
vt 152.205 80.7087
v 3767.5 600 -1566
vt 152.205 75.9843
v 3547.5 600 -1566
vt 143.543 75.9843
v 3547.5 720 -1566
vt 143.543 80.7087
v 2545.5 720 -1566
vt 104.094 80.7087
v 2545.5 600 -1566
vt 104.094 75.9843
v 2325.5 600 -1566
vt 95.4331 75.9843
v 2325.5 720 -1566
vt 95.4331 80.7087
v 1323.5 720 -1566
vt 55.9843 80.7087
v 1323.5 600 -1566
vt 55.9843 75.9843
v 1103.5 600 -1566
vt 47.3228 75.9843
v 1103.5 720 -1566
vt 47.3228 80.7087
v 101.504 720 -1566
f 29/43/2 26/50/2 25/5/2 30/51/2 31/52/2 32/53/2 33/54/2 34/55/2 35/56/2 36/57/2 37/58/2 38/59/2 39/60/2 40/61/2 41/62/2 42/63/2 43/64/2 44/65/2 45/66/2 46/42/2 

v 4147.4 -1330 -1366
vt -167.161 2.27374e-13
vt -7.87402 7.87402
vt -239.764 7.87402
f 47/67/4 29/68/4 26/69/4

v -98.496 -1330 -1366
vt 0 0
f 48/70/4 29/68/4 47/67/4

v 101.504 -1330 -5546
vt -7.87402 164.567
f 29/68/4 48/70/4 49/71/4

v -98.496 -1330 -5789.4
vt 0 174.15
f 50/72/4 49/71/4 48/70/4

vt -248.031 181.498
f 49/71/4 50/72/4 18/73/4

vt 253.298 82.6772
vn 0.0296144 2.40877e-16 0.999561
vt 5.15733 4.19303e-14
vt 253.298 4.19303e-14
f 17/74/7 50/75/7 18/76/7

v 4989.5 600 -5940.14
vt 205.56 75.9843
f 50/75/7 17/74/7 51/77/7

v 4989.5 720 -5940.14
vt 205.56 80.7087
f 51/77/7 17/74/7 52/78/7

v 4769.5 720 -5933.63
vt 196.895 80.7087
f 52/78/7 17/74/7 53/79/7

v 3767.5 720 -5903.94
vt 157.429 80.7087
f 53/79/7 17/74/7 54/80/7

v 3547.5 720 -5897.42
vt 148.764 80.7087
f 54/80/7 17/74/7 55/81/7

v 2545.5 720 -5867.73
vt 109.297 80.7087
f 55/81/7 17/74/7 56/82/7

v 2325.5 720 -5861.22
vt 100.632 80.7087
f 56/82/7 17/74/7 57/83/7

v 1323.5 720 -5831.53
vt 61.1662 80.7087
f 57/83/7 17/74/7 58/84/7

v 1103.5 720 -5825.01
vt 52.5009 80.7087
f 58/84/7 17/74/7 59/85/7

v -98.496 770 -5789.4
vt 5.15733 82.6772
f 60/86/7 59/85/7 17/74/7

v 1103.5 600 -5825.01
vt 52.5009 75.9843
f 60/86/7 61/87/7 59/85/7

f 50/75/7 61/87/7 60/86/7

f 61/87/7 50/75/7 51/77/7

v 4769.5 600 -5933.63
vt 196.895 75.9843
f 61/87/7 51/77/7 62/88/7

vt -200.315 180.084
v 4989.5 600 -5689.67
vt -200.315 170.223
v 4769.5 600 -5683.2
vt -191.654 169.969
vt -191.654 179.828
f 51/89/4 63/90/4 64/91/4 62/92/4 

v 4989.5 720 -5689.67
vt 170.223 80.7087
vt 170.223 75.9843
vt 180.084 75.9843
vt 180.084 80.7087
v 4989.5 720 -5814.78
vt 175.149 80.7087
f 65/93/6 63/94/6 51/95/6 52/96/6 66/97/6 

vt -244.696 9.79702e-14
vn -0.0293803 -5.96417e-16 -0.999568
vt -12.7056 9.79702e-14
v 101.504 720 -5546
vt -12.7056 80.7087
v 1103.5 720 -5575.45
vt -52.1715 80.7087
v 1103.5 600 -5575.45
vt -52.1715 75.9843
v 1323.5 600 -5581.92
vt -60.8367 75.9843
v 1323.5 720 -5581.92
vt -60.8367 80.7087
v 2325.5 720 -5611.37
vt -100.303 80.7087
v 2325.5 600 -5611.37
vt -100.303 75.9843
v 2545.5 600 -5617.83
vt -108.968 75.9843
v 2545.5 720 -5617.83
vt -108.968 80.7087
v 3547.5 720 -5647.29
vt -148.434 80.7087
v 3547.5 600 -5647.29
vt -148.434 75.9843
v 3767.5 600 -5653.75
vt -157.099 75.9843
v 3767.5 720 -5653.75
vt -157.099 80.7087
v 4769.5 720 -5683.2
vt -196.565 80.7087
vt -196.565 75.9843
vt -205.23 75.9843
vt -205.23 80.7087
vt -244.696 80.7087
f 27/98/8 49/99/8 67/100/8 68/101/8 69/102/8 70/103/8 71/104/8 72/105/8 73/106/8 74/107/8 75/108/8 76/109/8 77/110/8 78/111/8 79/112/8 80/113/8 64/114/8 63/115/8 65/116/8 28/117/8 

vt -239.764 171.383
f 49/71/4 18/73/4 27/118/4

f 27/118/4 18/73/4 26/69/4

vt -248.031 2.27374e-13
f 19/119/4 26/69/4 18/73/4

f 47/67/4 26/69/4 19/119/4

vt -167.161 -3.5225e-29
vn -9.19034e-16 4.77648e-16 -1
v -98.496 770 -1366
vt 0 82.6772
vt -248.031 2.75012e-31
f 47/120/9 81/121/9 19/122/9

f 81/121/9 47/120/9 48/70/9

vt 174.15 0
vt 174.15 82.6772
f 48/70/6 50/123/6 60/124/6 81/121/6 

v 6096.5 770 -5847.58
vt -243.898 176.44
vn -1.6758e-17 -1 4.84473e-18
v 1.504 770 -5667
vt -3.93701 169.331
v 1.504 770 -1466
vt -3.93701 3.93701
v 6096.5 770 -1466
vt -243.898 3.93701
vt -243.898 100.517
vt -248.031 90.6742
vt -248.031 2.26973e-13
vt 1.3855e-15 -4.00549e-16
vt 1.3855e-15 174.15
vt -248.031 145.792
vt -243.898 135.95
f 82/125/10 83/126/10 84/127/10 85/128/10 8/129/10 7/18/10 21/130/10 20/131/10 81/132/10 60/133/10 17/73/10 16/134/10 23/17/10 24/135/10 

v 2325.5 720 -5735.85
vt -100.486 80.7087
vn -0.0296144 3.25498e-15 -0.999561
v 1323.5 720 -5706.16
vt -61.02 80.7087
v 1103.5 720 -5699.65
vt -52.3548 80.7087
v 1.504 720 -5667
vt -8.9499 80.7087
vt -8.9499 82.6772
vt -249.016 82.6772
v 6096.5 720 -5847.58
vt -249.016 80.7087
vt -205.414 80.7087
v 4769.5 720 -5808.26
vt -196.749 80.7087
v 3767.5 720 -5778.57
vt -157.283 80.7087
v 3547.5 720 -5772.06
vt -148.617 80.7087
v 2545.5 720 -5742.37
vt -109.151 80.7087
f 86/136/11 87/137/11 88/138/11 89/139/11 83/140/11 82/141/11 90/142/11 66/143/11 91/144/11 92/145/11 93/146/11 94/147/11 

vt -55.9843 170.873
vt -95.4331 172.041
vt -95.4331 167.141
vt -55.9843 165.981
f 87/148/4 86/149/4 72/150/4 71/151/4 

vt -176.977 80.7087
v 2325.5 600 -5861.22
vt -176.977 75.9843
vt -167.141 75.9843
vt -167.141 80.7087
vt -172.041 80.7087
f 57/152/3 95/153/3 73/154/3 72/155/3 86/156/3 

v 1323.5 600 -5831.53
vt 61.1662 75.9843
vt 100.632 75.9843
f 57/83/7 96/157/7 95/158/7

f 96/157/7 57/83/7 58/84/7

vt 165.981 80.7087
vt 165.981 75.9843
vt 175.808 75.9843
vt 175.808 80.7087
vt 170.873 80.7087
f 71/159/6 70/160/6 96/161/6 58/162/6 87/163/6 

vt -55.9843 175.808
vn -5.25571e-16 -1 7.21895e-16
vt -47.3228 165.726
vt -47.3228 175.552
f 96/164/12 70/151/12 69/165/12 61/166/12 

vt -165.726 80.7087
vt -170.616 80.7087
vt -175.552 80.7087
vt -175.552 75.9843
vt -165.726 75.9843
f 68/167/3 88/168/3 59/169/3 61/170/3 69/171/3 

vn -1.54549e-16 -1 1.33576e-19
vt -47.3228 7.87402
v 1103.5 720 -1466
vt -47.3228 3.93701
v 1.504 720 -1466
vt -47.3228 170.616
f 46/68/13 45/172/13 97/173/13 98/127/13 89/126/13 88/174/13 68/165/13 67/71/13 

vt -7.87402 80.7087
vn -1 8.02124e-15 7.21911e-15
vt -7.87402 75.9843
v 1103.5 600 -1366
vt 2.84786e-13 75.9843
v 1103.5 720 -1366
vt 2.84786e-13 80.7087
vt -3.93701 80.7087
f 45/175/14 44/176/14 99/177/14 100/178/14 97/179/14 

vn -5.46903e-16 -1 -9.02389e-16
vt -55.9843 7.87402
v 1323.5 600 -1366
vt -55.9843 1.25411e-13
vt -47.3228 1.25411e-13
f 44/172/15 43/180/15 101/181/15 99/182/15 

v 1323.5 720 -1466
vt 3.93701 80.7087
v 1323.5 720 -1366
vt 5.68434e-14 80.7087
vt 5.68434e-14 75.9843
vt 7.87402 75.9843
f 42/42/6 102/183/6 103/184/6 101/185/6 43/186/6 

vt -95.4331 7.87402
v 2325.5 720 -1466
vt -95.4331 3.93701
vt -55.9843 3.93701
f 42/180/4 41/187/4 104/188/4 102/189/4 

v 2325.5 600 -1366
vt -8.52651e-14 75.9843
v 2325.5 720 -1366
vt -8.52651e-14 80.7087
f 41/175/3 40/176/3 105/190/3 106/191/3 104/179/3 

vn 5.46903e-16 -1 6.51445e-30
vt -104.094 7.87402
v 2545.5 600 -1366
vt -104.094 8.52651e-14
vt -95.4331 8.52651e-14
f 40/187/16 39/192/16 107/193/16 105/194/16 

vt 8.52651e-14 75.9843
v 2545.5 720 -1466
v 2545.5 720 -1366
f 107/195/6 39/186/6 38/42/6 108/183/6 109/184/6 

vn 1.2855e-30 -1 3.60956e-15
vt -143.543 7.87402
v 3547.5 720 -1466
vt -143.543 3.93701
vt -104.094 3.93701
f 38/192/17 37/196/17 110/197/17 108/198/17 

v 3547.5 600 -1366
vt -1.13687e-13 75.9843
v 3547.5 720 -1366
f 37/175/3 36/176/3 111/199/3 112/191/3 110/179/3 

vn 9.71665e-47 -1 8.68593e-30
vt -152.205 7.87402
v 3767.5 600 -1366
vt -152.205 1.13687e-13
vt -143.543 1.13687e-13
f 36/196/18 35/200/18 113/201/18 111/202/18 

vt 1.13687e-13 75.9843
v 3767.5 720 -1466
v 3767.5 720 -1366
vt 8.52651e-14 80.7087
f 113/203/6 35/186/6 34/42/6 114/183/6 115/204/6 

vt -191.654 7.87402
v 4769.5 720 -1466
vt -191.654 3.93701
vt -152.205 3.93701
f 34/200/17 33/205/17 116/206/17 114/207/17 

v 4769.5 600 -1366
vt -1.7053e-13 75.9843
v 4769.5 720 -1366
vt -1.42109e-13 80.7087
f 33/175/3 32/176/3 117/208/3 118/209/3 116/179/3 

vn -5.46903e-16 -1 4.34297e-30
vt -200.315 7.87402
v 4989.5 600 -1366
vt -200.315 1.7053e-13
vt -191.654 1.7053e-13
f 32/205/19 31/210/19 119/211/19 117/212/19 

vt 1.7053e-13 75.9843
v 4989.5 720 -1466
v 4989.5 720 -1366
vt 1.7053e-13 80.7087
f 119/213/6 31/186/6 30/42/6 120/183/6 121/214/6 

v 6096.5 720 -1466
vn 1.98381e-18 -1 -2.99582e-16
vt -200.315 3.93701
f 122/128/20 120/215/20 30/210/20 25/69/20 1/15/20 2/129/20 

vn 1.00302e-15 -3.9622e-15 1
vt 3.93701 82.6772
f 114/55/21 116/54/21 120/51/21 122/10/21 85/9/21 84/216/21 98/183/21 97/66/21 102/63/21 104/62/21 108/59/21 110/58/21 

vt 200.315 3.93701
vn 1.64071e-15 1 -5.47806e-32
vt 191.654 3.93701
vt 191.654 1.42109e-13
vt 200.315 1.7053e-13
f 120/217/22 116/218/22 118/219/22 121/220/22 

vt -200.315 80.7087
vt -191.654 80.7087
f 20/38/9 121/221/9 118/222/9

vt -200.315 75.9843
f 20/38/9 119/223/9 121/221/9

f 19/122/9 119/223/9 20/38/9

vt -47.3228 75.9843
f 119/223/9 19/122/9 99/224/9

f 19/122/9 81/121/9 99/224/9

vt -47.3228 80.7087
f 99/224/9 81/121/9 100/225/9

vt -55.9843 80.7087
f 100/225/9 81/121/9 103/226/9

vt -104.094 80.7087
f 103/226/9 81/121/9 109/227/9

vt -143.543 80.7087
f 109/227/9 81/121/9 112/228/9

vt -152.205 80.7087
f 112/228/9 81/121/9 115/229/9

f 115/229/9 81/121/9 118/222/9

f 118/222/9 81/121/9 20/38/9

vt -191.654 75.9843
f 117/230/9 115/229/9 118/222/9

vt -152.205 75.9843
f 115/229/9 117/230/9 113/231/9

f 119/223/9 113/231/9 117/230/9

vt -143.543 75.9843
f 119/223/9 111/232/9 113/231/9

vt -104.094 75.9843
f 119/223/9 107/233/9 111/232/9

vt -95.4331 75.9843
f 119/223/9 105/234/9 107/233/9

vt -55.9843 75.9843
f 119/223/9 101/235/9 105/234/9

f 119/223/9 99/224/9 101/235/9

f 103/226/9 105/234/9 101/235/9

vt -95.4331 80.7087
f 105/234/9 103/226/9 106/236/9

f 106/236/9 103/226/9 109/227/9

vt 104.094 3.93701
vn -1.64071e-15 1 5.47806e-32
vt 95.4331 3.93701
vt 95.4331 8.52651e-14
vt 104.094 5.68434e-14
f 108/237/23 104/238/23 106/239/23 109/240/23 

f 109/227/9 111/232/9 107/233/9

f 111/232/9 109/227/9 112/228/9

vt 152.205 3.93701
vt 143.543 3.93701
vt 143.543 8.52651e-14
vt 152.205 8.52651e-14
f 114/241/1 110/242/1 112/243/1 115/244/1 

vt 47.3228 3.93701
vn -5.89598e-30 1 -3.60956e-15
vt 47.3228 -2.34479e-13
vt 55.9843 -2.34479e-13
vt 55.9843 3.93701
f 97/245/24 100/246/24 103/247/24 102/248/24 

f 122/183/6 2/49/6 8/37/6 85/216/6 

vt -100.517 82.6772
f 3/14/3 2/13/3 8/249/3 24/33/3 

vt 248.031 135.95
vn 6.87535e-15 1 -0
vt 248.031 100.517
f 23/250/25 24/3/25 8/2/25 7/251/25 

vn 1 8.79423e-32 -7.0194e-16
vt 176.44 80.7087
vt 176.44 82.6772
f 3/46/26 90/252/26 82/253/26 24/36/26 

vn 3.1669e-16 -1 8.03516e-16
vt -200.315 175.149
f 28/118/27 65/90/27 66/254/27 90/125/27 3/135/27 4/16/27 

vt -169.331 80.7087
vt -3.93701 82.6772
vt -169.331 82.6772
f 89/255/3 98/179/3 84/256/3 83/257/3 

vt -164.567 0
vt -7.87402 0
vt -164.567 80.7087
f 49/258/3 29/259/3 46/175/3 67/260/3 

f 27/118/4 26/69/4 29/68/4 49/71/4 

vt 47.3228 170.616
vt 55.9843 170.873
vt 55.9843 175.808
vt 47.3228 175.552
f 88/261/1 87/262/1 58/263/1 59/264/1 

f 61/87/7 95/158/7 96/157/7

v 2545.5 600 -5867.73
vt 109.297 75.9843
f 61/87/7 123/265/7 95/158/7

v 3547.5 600 -5897.42
vt 148.764 75.9843
f 61/87/7 124/266/7 123/265/7

v 3767.5 600 -5903.94
vt 157.429 75.9843
f 61/87/7 125/267/7 124/266/7

f 61/87/7 62/88/7 125/267/7

f 53/79/7 125/267/7 62/88/7

f 125/267/7 53/79/7 54/80/7

vt 168.809 80.7087
vt 168.809 75.9843
vt 178.659 75.9843
vt 178.659 80.7087
vt 173.723 80.7087
f 79/268/6 78/269/6 125/270/6 54/271/6 92/272/6 

vt -152.205 178.659
vt -152.205 168.809
vt -143.543 168.555
vt -143.543 178.402
f 125/273/4 78/274/4 77/275/4 124/276/4 

vt -178.402 80.7087
vt -178.402 75.9843
vt -168.555 75.9843
vt -168.555 80.7087
vt -173.467 80.7087
f 55/277/3 124/278/3 77/279/3 76/280/3 93/281/3 

f 55/81/7 123/265/7 124/266/7

f 123/265/7 55/81/7 56/82/7

vt 167.395 80.7087
vt 167.395 75.9843
vt 177.234 75.9843
vt 177.234 80.7087
vt 172.298 80.7087
f 75/282/6 74/283/6 123/284/6 56/285/6 94/286/6 

vt -104.094 177.234
vt -104.094 167.395
vt -95.4331 176.977
f 123/287/4 74/288/4 73/150/4 95/289/4 

vt -104.094 172.298
f 94/290/4 86/149/4 57/289/4 56/287/4 

vt -143.543 173.467
f 94/290/4 93/291/4 76/275/4 75/288/4 

vt -152.205 173.723
f 92/292/4 93/291/4 55/276/4 54/273/4 

vt -191.654 174.892
f 92/292/4 91/293/4 80/91/4 79/274/4 

vt -179.828 80.7087
vt -179.828 75.9843
vt -169.969 75.9843
vt -169.969 80.7087
vt -174.892 80.7087
f 53/294/3 62/295/3 64/296/3 80/297/3 91/298/3 

vn -1.64071e-15 -1 8.28768e-32
f 66/254/28 91/293/28 53/92/28 52/89/28 

f 13/32/3 22/31/3 21/30/3 7/249/3 6/12/3 

vt 239.764 16.1417
vt 248.031 16.1417
f 5/6/2 14/299/2 13/300/2 6/7/2 

