# Alias OBJ Model File
# Exported from SketchUp, (c) 2000-2012 Trimble Navigation Limited
# File units = millimeters

mtllib statek6-tomas2.mtl

g Mesh1 horni_komora1 Model

usemtl FrontColor
v 5951.5 770 -2899
vt 238.189 60.3543
vn 0 1 -0
v 6201.5 770 -2899
vt 248.031 60.3543
v 6201.5 770 -3719
vt 248.031 92.6378
v 5951.5 770 -3719
vt 238.189 92.6378
f 1/1/1 2/2/1 3/3/1 4/4/1 

vt -238.189 0
vn 0 0 -1
v 5951.5 2200 -2899
vt -238.189 56.2992
v 6201.5 2200 -2899
vt -248.031 56.2992
v 6201.5 1630 -2899
vt -248.031 33.8583
vt -248.031 0
f 1/5/2 5/6/2 6/7/2 7/8/2 2/9/2 

vt -60.3543 0
vn -1 0 -0
v 5951.5 770 -1616
vt -9.84252 0
v 5951.5 2490 -1616
vt -9.84252 67.7165
v 5951.5 2490 -2899
vt -60.3543 67.7165
vt -60.3543 56.2992
f 1/10/3 8/11/3 9/12/3 10/13/3 5/14/3 

v 6201.5 770 -5976.05
vt 248.031 181.498
vn 1.19095e-16 1 1.44355e-20
v -98.496 770 -5789.4
vt -3.38489e-30 174.15
v -98.496 770 -1366
vt -3.38489e-30 4.10282e-34
v 6201.5 770 -1366
vt 248.031 2.27374e-13
v 6201.5 770 -2649
vt 248.031 50.5118
vt 238.189 9.84252
v 151.504 770 -1616
vt 9.84252 9.84252
v 151.504 770 -5496.8
vt 9.84252 162.63
v 5951.5 770 -5668.39
vt 238.189 169.386
v 6201.5 770 -3969
vt 248.031 102.48
f 11/15/4 12/16/4 13/17/4 14/18/4 15/19/4 2/2/4 1/1/4 8/20/4 16/21/4 17/22/4 18/23/4 4/4/4 3/3/4 19/24/4 

vt -253.298 -5.94884e-16
vn -0.0296144 3.41744e-18 -0.999561
vt -5.15733 2.78268e-14
v -98.496 2490 -5789.4
vt -5.15733 67.7165
v 6201.5 2490 -5976.05
vt -253.298 67.7165
f 11/25/5 12/26/5 20/27/5 21/28/5 

vt -174.15 2.84217e-14
v -98.496 1420 -3756
vt -94.0945 25.5906
vt -174.15 67.7165
f 12/29/3 22/30/3 20/31/3

v -98.496 1420 -2876
vt -59.4488 25.5906
f 12/29/3 23/32/3 22/30/3

vt 0 2.84217e-14
f 13/33/3 23/32/3 12/29/3

v -98.496 2300 -2876
vt -59.4488 60.2362
f 23/32/3 13/33/3 24/34/3

v -98.496 2490 -1366
vt 0 67.7165
f 25/35/3 24/34/3 13/33/3

f 24/34/3 25/35/3 20/31/3

vt -3.93807e-15 174.15
vn 5.81552e-17 1 1.00334e-16
vt -3.93807e-15 6.79426e-15
v 6201.5 2490 -1366
vt 248.031 2.34168e-13
v 6201.5 2490 -2899
v 151.504 2490 -1616
v 151.504 2490 -5496.8
v 5951.5 2490 -5668.39
v 5951.5 2490 -3719
v 6201.5 2490 -3719
f 20/36/6 25/37/6 26/38/6 27/2/6 10/1/6 9/20/6 28/21/6 29/22/6 30/23/6 31/4/6 32/3/6 21/15/6 

vn 9.16713e-16 -1.36545e-31 1
v 1361.5 2300 -1366
vt 57.4803 60.2362
vt 248.031 67.7165
f 25/35/7 33/39/7 26/40/7

v 1361.5 2160 -1366
vt 57.4803 54.7244
f 25/35/7 34/41/7 33/39/7

v 1361.5 1630 -1366
vt 57.4803 33.8583
f 25/35/7 35/42/7 34/41/7

v 1361.5 1490 -1366
vt 57.4803 28.3465
f 25/35/7 36/43/7 35/42/7

f 13/33/7 36/43/7 25/35/7

v 2241.5 1490 -1366
vt 92.126 28.3465
f 36/43/7 13/33/7 37/44/7

f 13/33/7 26/40/7 37/44/7

vt 248.031 0
f 26/40/7 13/33/7 14/45/7

vt 2.27374e-13 0
vn 1 0 -0
vt 50.5118 0
v 6201.5 2400 -2649
vt 50.5118 64.1732
vt 60.3543 56.2992
v 6201.5 2200 -3719
vt 92.6378 56.2992
v 6201.5 2400 -3969
vt 102.48 64.1732
vt 102.48 0
vt 181.498 0
vt 181.498 67.7165
vt 92.6378 67.7165
vt 60.3543 67.7165
vt 2.27374e-13 67.7165
f 14/46/8 15/47/8 38/48/8 6/49/8 39/50/8 40/51/8 19/52/8 11/53/8 21/54/8 32/55/8 27/56/8 26/57/8 

vt 60.3543 33.8583
vt 60.3543 0
f 7/58/8 6/49/8 38/48/8 15/47/8 2/59/8 

v 5951.5 2200 -3719
vt -238.189 92.6378
vn 0 -1 -0
vt -248.031 92.6378
vt -248.031 60.3543
vt -238.189 60.3543
f 41/60/9 39/61/9 6/62/9 5/63/9 

v 6201.5 1560 -3719
vt 248.031 31.1024
vn 0 0 1
vt 248.031 56.2992
vt 238.189 56.2992
vt 238.189 0
f 42/64/10 39/65/10 41/66/10 4/67/10 3/45/10 

vt 92.6378 0
vt 92.6378 31.1024
f 3/68/8 19/52/8 40/51/8 39/50/8 42/69/8 

vt -169.386 0
vt -92.6378 0
vt -92.6378 56.2992
vt -92.6378 67.7165
vt -169.386 67.7165
f 18/70/3 4/71/3 41/72/3 31/73/3 30/74/3 

f 41/72/3 5/14/3 10/13/3 31/73/3 

vn 0 1 8.8038e-16
f 32/3/11 31/4/11 10/1/11 27/2/11 

vt 14.6476 2.7868e-14
vn 0.0295728 -3.41248e-18 0.999563
vt 243.094 -5.53735e-16
vt 243.094 67.7165
vt 14.6476 67.7165
f 17/75/12 18/76/12 30/77/12 29/78/12 

vt 162.63 67.7165
vn 1 0 -2.79032e-16
v 151.504 2160 -3616
vt 88.5827 54.7244
vt 162.63 2.84217e-14
f 29/79/13 43/80/13 17/81/13

v 151.504 2160 -3016
vt 64.9606 54.7244
f 29/79/13 44/82/13 43/80/13

vt 9.84252 67.7165
f 28/83/13 44/82/13 29/79/13

v 151.504 1560 -3016
vt 64.9606 31.1024
f 44/82/13 28/83/13 45/84/13

vt 9.84252 2.84217e-14
f 16/85/13 45/84/13 28/83/13

f 45/84/13 16/85/13 17/81/13

v 151.504 1560 -3616
vt 88.5827 31.1024
f 45/84/13 17/81/13 46/86/13

f 46/86/13 17/81/13 43/80/13

v -98.496 1560 -3616
vt 0 31.1024
vt 9.84252 31.1024
vt 9.84252 54.7244
v -98.496 2160 -3616
vt 0 54.7244
f 47/87/10 46/88/10 43/89/10 48/90/10 

vt 9.84252 88.5827
vt 0 88.5827
v -98.496 1560 -3016
vt 0 64.9606
vt 9.84252 64.9606
f 46/91/1 47/92/1 49/93/1 45/94/1 

vt -64.9606 31.1024
vt -88.5827 31.1024
f 22/30/3 49/95/3 47/96/3

f 23/32/3 49/95/3 22/30/3

v -98.496 2160 -3016
vt -64.9606 54.7244
f 49/95/3 23/32/3 50/97/3

f 24/34/3 50/97/3 23/32/3

v -98.496 2300 -3756
vt -94.0945 60.2362
f 50/97/3 24/34/3 51/98/3

f 24/34/3 20/31/3 51/98/3

f 51/98/3 20/31/3 22/30/3

f 22/30/3 47/96/3 51/98/3

vt -88.5827 54.7244
f 48/99/3 51/98/3 47/96/3

f 50/97/3 51/98/3 48/99/3

vt -9.84252 64.9606
vt -9.84252 88.5827
f 44/100/9 50/93/9 48/92/9 43/101/9 

vt -9.84252 54.7244
vt -9.84252 31.1024
f 50/90/2 44/102/2 45/103/2 49/87/2 

v 1501.5 1630 -1616
vt -62.9921 33.8583
vt -9.84252 2.84217e-14
f 28/12/2 52/104/2 16/105/2

v 1501.5 2160 -1616
vt -62.9921 54.7244
f 52/104/2 28/12/2 53/106/2

v 2101.5 2160 -1616
vt -86.6142 54.7244
f 53/106/2 28/12/2 54/107/2

vt -238.189 67.7165
f 54/107/2 28/12/2 9/108/2

v 2101.5 1630 -1616
vt -86.6142 33.8583
f 9/108/2 55/109/2 54/107/2

f 9/108/2 16/105/2 55/109/2

f 16/105/2 9/108/2 8/5/2

f 55/109/2 16/105/2 52/104/2

v 1501.5 1630 -1366
vt 62.9921 2.84217e-14
v 2101.5 1630 -1366
vt 86.6142 2.84217e-14
vt 86.6142 9.84252
vt 62.9921 9.84252
f 56/110/1 57/111/1 55/112/1 52/113/1 

vn 2.13425e-16 9.09345e-16 1
v 2241.5 1630 -1366
vt 92.126 33.8583
vt 86.6142 33.8583
vt 62.9921 33.8583
f 37/44/14 58/114/14 57/115/14 56/116/14 35/42/14 36/43/14 

f 37/44/7 26/40/7 58/114/7

v 2241.5 2160 -1366
vt 92.126 54.7244
f 58/114/7 26/40/7 59/117/7

v 2241.5 2300 -1366
vt 92.126 60.2362
f 59/117/7 26/40/7 60/118/7

f 60/118/7 26/40/7 33/39/7

v 1501.5 2160 -1366
vt 62.9921 54.7244
v 2101.5 2160 -1366
vt 86.6142 54.7244
f 33/39/10 34/41/10 61/119/10 62/120/10 59/117/10 60/118/10 

f 56/116/10 61/119/10 34/41/10 35/42/10 

vt 2.84217e-14 54.7244
vt 2.84217e-14 33.8583
vt 9.84252 33.8583
f 53/89/8 61/121/8 56/122/8 52/123/8 

vt -86.6142 9.84252
vn 0 -1 -1.44382e-15
vt -86.6142 1.07434e-13
vt -62.9921 1.07434e-13
vt -62.9921 9.84252
f 54/124/15 62/125/15 61/126/15 53/127/15 

vt -2.84217e-14 54.7244
vt -9.84252 33.8583
vt -2.84217e-14 33.8583
f 62/128/3 54/102/3 55/129/3 57/130/3 

vn 7.14764e-16 -4.40546e-16 1
f 58/114/16 59/117/16 62/120/16 57/115/16 

